<svg height="512pt" viewBox="0 -43 512 512" width="512pt" xmlns="http://www.w3.org/2000/svg"><path d="m361.109375 164.375c-12.398437 0-24.585937 2.023438-36.214844 6.011719-5.222656 1.792969-8.007812 7.480469-6.214843 12.703125 1.792968 5.222656 7.476562 8.007812 12.703124 6.214844 9.539063-3.273438 19.539063-4.929688 29.726563-4.929688 50.488281 0 91.5625 41.074219 91.5625 91.558594 0 50.488281-41.074219 91.5625-91.5625 91.5625-50.484375 0-91.558594-41.074219-91.558594-91.5625 0-9.832032 1.546875-19.503906 4.601563-28.746094 1.730468-5.242188-1.117188-10.898438-6.359375-12.628906-5.242188-1.734375-10.898438 1.113281-12.632813 6.355468-3.722656 11.269532-5.609375 23.050782-5.609375 35.019532 0 61.515625 50.046875 111.5625 111.5625 111.5625s111.558594-50.046875 111.558594-111.5625c0-61.511719-50.046875-111.558594-111.5625-111.558594zm0 0"/><path d="m388.679688 127.570312v-84.671874c0-12.03125-4.980469-22.921876-12.988282-30.71875-.125-.132813-.253906-.265626-.386718-.390626-4.460938-4.234374-9.695313-7.410156-15.363282-9.390624-2.628906-.921876-5.355468-1.585938-8.140625-1.976563-.035156-.003906-.074219-.011719-.109375-.015625-.128906-.015625-.261718-.035156-.390625-.050781-.066406-.007813-.132812-.015625-.199219-.027344-.101562-.011719-.203124-.023437-.304687-.035156-.082031-.011719-.164063-.019531-.246094-.027344-.089843-.011719-.175781-.019531-.265625-.03125-.09375-.007813-.183594-.015625-.277344-.027344-.074218-.007812-.152343-.015625-.226562-.019531-.105469-.011719-.214844-.023438-.320312-.03125-.0625-.003906-.117188-.007812-.179688-.011719-.117188-.011719-.238281-.019531-.359375-.03125-.050781-.003906-.097656-.003906-.148437-.007812-.125-.0078128-.25-.0156252-.375-.027344-.046876 0-.089844-.0039062-.132813-.0078125-.132813-.0078125-.269531-.0117187-.402344-.0195313-.027343 0-.054687 0-.085937-.0039062-.144532-.0078125-.296875-.0117188-.445313-.0195312-.007812 0-.019531 0-.027343 0-.507813-.0195313-1.015626-.0273438-1.523438-.0273438h-302.882812c-.507813 0-1.019532.0117188-1.523438.0273438-.011719 0-.019531 0-.027344 0-.152344.0039062-.300781.0117187-.449218.0195312-.027344 0-.054688.0039062-.082032.0039062-.132812.0078126-.269531.015625-.402344.0234376-.042968 0-.089843.0039062-.132812.0078124-.125.0078126-.25.015625-.378906.0234378-.046875.003906-.09375.007812-.144532.011719-.121093.007812-.242187.015624-.363281.027343-.054687.003907-.113281.007813-.171875.011719-.109375.011719-.21875.019531-.328125.03125-.070312.007812-.144531.011719-.21875.019531-.09375.011719-.191406.019531-.285156.03125-.085937.007813-.171875.015625-.253906.027344-.085938.007813-.171875.019531-.253907.027344-.101562.011719-.199218.023437-.296874.035156-.070313.011719-.140626.019531-.210938.027344-.125.015625-.25.035156-.378906.050781-.039063.007812-.078125.011719-.121094.019531-.160156.019531-.324219.046875-.488281.070313-.003907 0-.007813 0-.015625 0-6.382813.976562-12.4375 3.378906-17.757813 7.046875-.019531.015625-.042969.03125-.066406.046875-.105469.070312-.207031.144531-.3125.21875-.035156.023437-.070313.046875-.105469.070312-.050781.035156-.101562.074219-.152344.109375-1.605468 1.152344-3.144531 2.417969-4.597656 3.800781-.132812.125-.257812.25-.382812.382813-8.011719 7.796875-12.996094 18.691406-12.996094 30.726563v168.207031c0 10.820312 4.027344 20.714843 10.660156 28.273437.144532.179688.292969.355469.453125.53125 2.925781 3.230469 6.308594 5.964844 10 8.140625 6.390625 3.78125 13.839844 5.953125 21.785157 5.953125h168.902343c-1.050781 7.214844-1.578125 14.53125-1.578125 21.929688 0 83.203125 67.6875 150.890625 150.886719 150.890625 83.203125 0 150.890625-67.6875 150.890625-150.890625 0-73.785156-53.238281-135.375-123.320312-148.363282zm-27.570313-2.523437c-14.96875 0-29.757813 2.234375-43.894531 6.535156-.039063.011719-.078125.023438-.117188.035157-.226562.066406-.449218.136718-.671875.207031-.105469.03125-.207031.0625-.308593.097656-.164063.050781-.328126.101563-.492188.152344-.128906.039062-.261719.082031-.390625.125-.132813.039062-.261719.082031-.394531.125-.15625.050781-.3125.101562-.46875.152343-.101563.03125-.207032.066407-.308594.101563-.175781.054687-.351562.113281-.523438.171875-.085937.027344-.167968.054688-.253906.082031-.191406.066407-.390625.132813-.585937.199219-.054688.019531-.109375.035156-.167969.054688-.21875.074218-.433594.148437-.652344.226562-.03125.007812-.058594.019531-.089844.027344-.238281.085937-.480468.167968-.71875.253906-.003906 0-.007812 0-.011718.003906-1.71875.601563-3.429688 1.238282-5.128906 1.90625l-22.328126-28.34375 83.195313-73.351562c1.210937 2.789062 1.878906 5.863281 1.878906 9.089844v82.335937c-2.503906-.125-5.027343-.1875-7.566406-.1875zm-96.925781 35.242187c-5.9375 4.980469-11.472656 10.402344-16.566406 16.214844-3.601563 4.101563-6.976563 8.402344-10.117188 12.878906-.121094.175782-.246094.351563-.367188.53125-.050781.070313-.101562.140626-.152343.214844-.054688.082032-.109375.160156-.167969.242188-.304688.445312-.613281.894531-.914062 1.34375-.171876.253906-.34375.507812-.511719.761718-.003907.003907-.003907.007813-.007813.011719-.011718.015625-.019531.03125-.027344.042969-5.320312 8.007812-9.886718 16.550781-13.574218 25.398438-.128906.3125-.257813.625-.386719.9375-.027344.066406-.050781.128906-.078125.195312-.109375.269531-.21875.539062-.328125.808594-.007813.023437-.015625.046875-.027344.070312-1.847656 4.621094-3.460937 9.3125-4.832031 14.058594h-173.226562c-3.621094 0-7.164063-.863281-10.339844-2.472656l87.535156-111.125 43.617188 38.460937c3.820312 3.367188 8.066406 5.996094 12.546874 7.890625 4.324219 1.828125 8.871094 2.972656 13.46875 3.425782 9.910157.984374 20.074219-1.210938 28.832032-6.582032 2.238281-1.371094 4.382812-2.949218 6.410156-4.734375l43.609375-38.457031 18.800781 23.859375c-8.210937 4.605469-15.980468 9.96875-23.195312 16.023437zm-226.863282-139.601562c.085938-.019531.167969-.042969.253907-.0625.019531-.003906.039062-.007812.054687-.011719 1.710938-.402343 3.476563-.609375 5.269532-.609375h302.882812c1.320312 0 2.625.109375 3.902344.332032h.007812c.109375.019531.21875.039062.332032.058593.003906.003907.011718.003907.019531.003907.21875.042968.433593.085937.648437.132812.050782.011719.101563.023438.152344.035156.046875.011719.09375.023438.144531.03125.066407.015625.132813.03125.199219.050782.023438.003906.046875.011718.074219.015624.050781.015626.101562.027344.152343.039063l-87.917968 77.519531c-.074219.0625-.148438.125-.21875.191406l-51.542969 45.449219c-2.429687 2.144531-5.167969 3.765625-8.058594 4.859375-4.59375 1.734375-9.578125 2.140625-14.359375 1.21875-4.46875-.863281-8.753906-2.886718-12.375-6.078125l-139.679687-123.160156c.019531-.003906.039062-.007813.058593-.015625zm-17.320312 190.417969v-168.207031c0-3.226563.671875-6.300782 1.882812-9.089844l83.1875 73.347656-84.773437 107.621094c-.195313-1.195313-.296875-2.421875-.296875-3.671875zm341.109375 195.71875c-72.171875 0-130.886719-58.71875-130.886719-130.890625 0-9.933594 1.09375-19.703125 3.265625-29.21875.039063-.148438.078125-.300782.117188-.453125.445312-1.933594.941406-3.859375 1.476562-5.769531 1.421875-5.054688 3.148438-10.035157 5.160157-14.867188 3.292968-7.917969 7.410156-15.566406 12.238281-22.734375 2.578125-3.820313 5.347656-7.5 8.304687-11.023437 4.925782-5.871094 10.359375-11.308594 16.253906-16.253907 23.492188-19.710937 53.351563-30.566406 84.070313-30.566406.320313 0 .636719 0 .953125.003906.082031 0 .164062.003907.246094.003907.25 0 .5.003906.75.007812.066406 0 .132812 0 .203125.003906.296875.003906.597656.007813.894531.015625.007812 0 .019531 0 .03125.003907 3.71875.085937 7.449219.328124 11.148438.730468.195312.019532.394531.042969.589843.066406.078125.007813.15625.015626.234375.023438 65.109375 7.484375 115.839844 62.945312 115.839844 130.027344 0 72.171875-58.714844 130.890625-130.890625 130.890625zm0 0"/><path d="m288.804688 214.671875c5.523437 0 10-4.476563 10-10s-4.476563-10-10-10h-.023438c-5.523438 0-9.988281 4.476563-9.988281 10s4.488281 10 10.011719 10zm0 0"/><path d="m320.246094 342.21875h81.730468c9.636719 0 17.476563-7.839844 17.476563-17.476562v-55.007813c0-11.3125-7.925781-20.804687-18.511719-23.222656v-13.03125c0-21.960938-17.867187-39.828125-39.828125-39.828125-21.964843 0-39.832031 17.867187-39.832031 39.828125v13.03125c-10.585938 2.417969-18.507812 11.914062-18.507812 23.222656v55.007813c-.003907 9.636718 7.835937 17.476562 17.472656 17.476562zm79.207031-20h-76.679687v-52.484375c0-2.105469 1.710937-3.820313 3.816406-3.820313h69.042968c2.105469 0 3.820313 1.714844 3.820313 3.820313zm-38.34375-108.566406c10.9375 0 19.832031 8.894531 19.832031 19.828125v12.433593h-39.660156v-12.433593c0-10.933594 8.894531-19.828125 19.828125-19.828125zm0 0"/><path d="m361.109375 281.480469c-5.519531 0-10 4.480469-10 10v6.796875c0 5.523437 4.480469 10 10 10 5.523437 0 10-4.476563 10-10v-6.796875c0-5.519531-4.476563-10-10-10zm0 0"/></svg>